<?xml version="1.0" encoding="utf-8"?>
<!-- Generator: Adobe Illustrator 16.0.0, SVG Export Plug-In . SVG Version: 6.00 Build 0)  -->
<!DOCTYPE svg PUBLIC "-//W3C//DTD SVG 1.1//EN" "http://www.w3.org/Graphics/SVG/1.1/DTD/svg11.dtd">
<svg version="1.1" id="Capa_1" xmlns="http://www.w3.org/2000/svg" xmlns:xlink="http://www.w3.org/1999/xlink" x="0px" y="0px"
	 width="512px" height="512px" viewBox="0 0 512 512" enable-background="new 0 0 512 512" xml:space="preserve">
<g opacity="0.5">
	<g>
		<g id="Icons_15_">
			<g>
				<path fill="#FBFCFA" d="M301.389,417.519h-90.831c-7.031,0-12.736,5.706-12.736,12.736c0,7.036,5.705,12.741,12.736,12.741
					h90.831c7.031,0,12.742-5.705,12.742-12.741C314.132,423.225,308.422,417.519,301.389,417.519z"/>
				<path fill="#FBFCFA" d="M232.584,491.762C234.312,503.195,244.08,512,256.005,512c11.912,0,21.703-8.801,23.423-20.238
					c15.593-0.92,27.984-13.733,27.984-29.557H204.536C204.536,478.037,216.964,490.86,232.584,491.762z"/>
				<path fill="#FBFCFA" d="M256.003,73.488c9.397,0,16.993-7.606,16.993-16.986V16.986C272.996,7.603,265.401,0,256.003,0
					c-9.387,0-16.982,7.603-16.982,16.986v39.516C239.023,65.882,246.617,73.488,256.003,73.488z"/>
				<path fill="#FBFCFA" d="M144.539,98.235c3.336,4.58,8.512,7.011,13.774,7.011c3.449,0,6.946-1.055,9.964-3.245
					c7.583-5.508,9.275-16.129,3.767-23.718l-23.223-31.979c-5.523-7.582-16.124-9.291-23.732-3.766
					c-7.581,5.505-9.273,16.13-3.765,23.718L144.539,98.235z"/>
				<path fill="#FBFCFA" d="M367.443,347.229c-5.51-7.582-16.123-9.264-23.727-3.755c-7.575,5.514-9.267,16.137-3.743,23.725
					l23.237,31.98c3.313,4.569,8.49,7.002,13.755,7.002c3.461,0,6.945-1.055,9.963-3.243c7.582-5.516,9.271-16.14,3.752-23.729
					L367.443,347.229z"/>
				<path fill="#FBFCFA" d="M103.178,155.213l-37.591-12.226c-9.007-2.902-18.505,1.981-21.411,10.907
					c-2.907,8.915,1.974,18.502,10.896,21.404l37.591,12.226c1.756,0.564,3.512,0.839,5.253,0.839
					c7.165,0,13.816-4.562,16.157-11.746C116.979,167.703,112.1,158.114,103.178,155.213z"/>
				<path fill="#FBFCFA" d="M456.926,270.162l-37.582-12.209c-8.929-2.88-18.5,1.989-21.4,10.904
					c-2.905,8.924,1.989,18.508,10.91,21.409l37.591,12.207c1.743,0.565,3.497,0.837,5.24,0.837c7.165,0,13.815-4.57,16.157-11.742
					C470.74,282.641,465.853,273.064,456.926,270.162z"/>
				<path fill="#FBFCFA" d="M92.677,257.953l-37.604,12.191c-8.922,2.894-13.816,12.471-10.91,21.397
					c2.321,7.183,8.984,11.753,16.149,11.753c1.729,0,3.506-0.277,5.248-0.842l37.598-12.189
					c8.929-2.896,13.822-12.475,10.918-21.397C111.19,259.949,101.682,255.072,92.677,257.953z"/>
				<path fill="#FBFCFA" d="M414.102,188.363c1.743,0,3.497-0.275,5.242-0.839l37.582-12.208
					c8.926-2.902,13.814-12.484,10.915-21.404c-2.907-8.918-12.523-13.792-21.397-10.907l-37.591,12.207
					c-8.922,2.901-13.814,12.482-10.91,21.404C400.279,183.793,406.936,188.363,414.102,188.363z"/>
				<path fill="#FBFCFA" d="M144.562,347.224l-23.26,31.96c-5.522,7.589-3.844,18.212,3.753,23.729
					c3.003,2.197,6.501,3.254,9.964,3.254c5.261,0,10.438-2.422,13.754-6.993l23.258-31.962c5.523-7.587,3.844-18.211-3.752-23.729
					C160.716,337.936,150.047,339.637,144.562,347.224z"/>
				<path fill="#FBFCFA" d="M363.196,46.303l-23.224,31.979c-5.508,7.588-3.816,18.21,3.768,23.718
					c3.018,2.19,6.515,3.245,9.963,3.245c5.261,0,10.437-2.43,13.766-7.011l23.224-31.98c5.507-7.588,3.816-18.212-3.769-23.718
					C379.298,36.998,368.719,38.705,363.196,46.303z"/>
				<path fill="#FBFCFA" d="M378.684,223.36c0-67.768-54.933-122.704-122.692-122.704c-67.773,0-122.707,54.936-122.707,122.704
					c0,28.587,9.833,54.837,26.257,75.677c14.394,18.263,28.025,38.199,39.839,58.262v40.759h112.524v-39.677
					c11.704-19.514,26.837-41.979,40.508-59.324C368.853,278.211,378.684,251.966,378.684,223.36z"/>
			</g>
		</g>
	</g>
</g>
</svg>
