<?xml version="1.0" encoding="utf-8"?>
<!-- Generator: Adobe Illustrator 16.0.0, SVG Export Plug-In . SVG Version: 6.00 Build 0)  -->
<!DOCTYPE svg PUBLIC "-//W3C//DTD SVG 1.1//EN" "http://www.w3.org/Graphics/SVG/1.1/DTD/svg11.dtd">
<svg version="1.1" id="Layer_1" xmlns="http://www.w3.org/2000/svg" xmlns:xlink="http://www.w3.org/1999/xlink" x="0px" y="0px"
	 width="32px" height="32px" viewBox="0 0 32 32" enable-background="new 0 0 32 32" xml:space="preserve">
<g>
	<path fill="#FFCD73" d="M4.968,10.81c0.018-0.891,0.145-1.76,0.369-2.592C5.113,9.05,4.985,9.918,4.968,10.81
		c-0.015,0.731,0.043,1.446,0.165,2.14C5.011,12.256,4.953,11.541,4.968,10.81z"/>
	<path fill="#FFCD73" d="M10.943,20.844c-2.413-1.246-4.306-3.357-5.271-5.922C6.638,17.486,8.531,19.598,10.943,20.844
		c0.474,0.244,0.868,0.6,1.16,1.023C11.811,21.443,11.417,21.088,10.943,20.844z"/>
	<path fill="#FFCD73" d="M12.503,22.654c-0.096-0.274-0.228-0.534-0.39-0.773C12.275,22.12,12.407,22.38,12.503,22.654z"/>
	<path fill="#FFCD73" d="M18.443,13.271c-0.291,0.059-0.474,0.205-0.72,0.402c-0.374,0.299-0.841,0.672-1.724,0.672
		c-0.883,0-1.35-0.373-1.724-0.672c-0.246-0.197-0.429-0.343-0.72-0.402l1.883,10.354c0.006,0.033,0.008,0.066,0.008,0.1h1.105
		c0-0.033,0.002-0.066,0.008-0.1L18.443,13.271z"/>
	<path fill="#FFCD73" d="M5.37,8.099c0.019-0.066,0.038-0.131,0.057-0.196C5.407,7.968,5.388,8.033,5.37,8.099z"/>
	<path fill="#FFCD73" d="M15.414,0.015c0.426-0.022,0.846-0.018,1.26,0.007c-3.69,0.333-6.667,5.095-6.741,10.788
		c-0.057,4.362,1.533,8.161,3.878,10.029l-1.664-9.154c-0.055-0.299,0.144-0.586,0.444-0.641c0.298-0.059,0.587,0.144,0.642,0.444
		l0.119,0.653c0.812,0.03,1.255,0.383,1.614,0.67c0.324,0.26,0.539,0.431,1.035,0.431s0.711-0.171,1.035-0.431
		c0.357-0.287,0.802-0.64,1.613-0.67l0.119-0.653c0.055-0.3,0.341-0.502,0.641-0.444c0.301,0.055,0.499,0.342,0.445,0.641
		l-2.189,12.04h1.646v0.033c0-1.223,0.668-2.357,1.754-2.919c3.546-1.835,5.97-5.536,5.97-9.804
		C27.035,4.746,21.774-0.314,15.414,0.015z"/>
	<path fill="#FFCD73" d="M12.509,22.674c0.118,0.344,0.181,0.71,0.181,1.084l0,0C12.689,23.384,12.626,23.018,12.509,22.674z"/>
</g>
<path fill="#FFFFFF" d="M14.276,13.672c0.374,0.299,0.84,0.672,1.724,0.672c0.883,0,1.35-0.373,1.724-0.672
	c0.246-0.197,0.429-0.343,0.72-0.402l0.205-1.13c-0.812,0.03-1.256,0.383-1.613,0.669c-0.324,0.26-0.539,0.431-1.035,0.431
	s-0.71-0.171-1.035-0.431c-0.358-0.287-0.802-0.64-1.614-0.669l0.206,1.13C13.847,13.33,14.03,13.475,14.276,13.672z"/>
<path fill="#FFB969" d="M12.689,23.725h1.646l-0.525-2.886c-2.345-1.868-3.935-5.667-3.878-10.029
	c0.074-5.693,3.051-10.455,6.741-10.788c-0.414-0.025-0.834-0.029-1.26-0.007c-0.003,0-0.006,0-0.009,0
	C10.7,0.263,6.738,3.553,5.427,7.903c-0.02,0.065-0.039,0.13-0.057,0.196c-0.011,0.04-0.022,0.079-0.033,0.119
	C5.113,9.05,4.985,9.918,4.968,10.809c-0.015,0.731,0.043,1.447,0.165,2.14c0.119,0.682,0.301,1.341,0.539,1.973
	c0.966,2.564,2.859,4.676,5.271,5.922c0.474,0.244,0.868,0.6,1.16,1.023c0.003,0.005,0.006,0.01,0.009,0.014
	c0.163,0.239,0.294,0.499,0.39,0.773c0.002,0.006,0.004,0.014,0.006,0.02c0.118,0.344,0.181,0.71,0.181,1.084V23.725L12.689,23.725
	L12.689,23.725z"/>
<g>
	<path fill="#FFE8C0" d="M14.896,23.725h0.551c0-0.033-0.002-0.066-0.008-0.1l-1.883-10.354l-0.206-1.13l-0.119-0.653
		c-0.054-0.3-0.343-0.502-0.642-0.444c-0.3,0.055-0.499,0.342-0.444,0.641l1.664,9.153l0.525,2.887H14.896L14.896,23.725
		L14.896,23.725z"/>
	<path fill="#FFE8C0" d="M16.561,23.625c-0.006,0.033-0.008,0.066-0.008,0.1h1.111l2.189-12.04c0.055-0.299-0.145-0.586-0.444-0.641
		c-0.301-0.058-0.587,0.144-0.642,0.444l-0.119,0.653l-0.205,1.13L16.561,23.625z"/>
</g>
<path fill="#96A5B9" d="M14.896,30.896C14.896,31.506,15.391,32,16,32s1.104-0.494,1.104-1.104v-0.552h-2.207V30.896z"/>
<g>
	<path fill="#BEC8DC" d="M14.896,27.275l4.342-0.62c0.024-0.003,0.049-0.005,0.072-0.005v-1.109l-4.414,0.631V27.275z"/>
	<path fill="#BEC8DC" d="M12.698,28.689c0.001,0.013,0.003,0.025,0.005,0.038C12.701,28.715,12.699,28.702,12.698,28.689
		L12.698,28.689z"/>
	<path fill="#BEC8DC" d="M13.3,29.547L13.3,29.547c-0.047-0.023-0.092-0.051-0.134-0.08C13.208,29.496,13.253,29.523,13.3,29.547z"
		/>
	<path fill="#BEC8DC" d="M12.74,28.887c-0.004-0.014-0.009-0.027-0.012-0.041C12.731,28.859,12.736,28.873,12.74,28.887z"/>
	<path fill="#BEC8DC" d="M17.664,23.725h-1.111h-1.105h-0.551v1.344l4.342-0.62c0.024-0.003,0.049-0.005,0.072-0.005v-0.686v-0.033
		H17.664z"/>
	<path fill="#BEC8DC" d="M14.896,28.379v0.181c0,0.418,0.236,0.8,0.61,0.987l1.597,0.798l1.597-0.798
		c0.374-0.188,0.61-0.569,0.61-0.987v-0.812L14.896,28.379z"/>
</g>
<g>
	<polygon fill="#AAB6CA" points="14.896,23.725 14.336,23.725 12.689,23.725 12.689,23.758 12.689,23.758 12.689,24.828 
		12.689,25.384 14.896,25.068 	"/>
	<path fill="#AAB6CA" d="M14.896,26.172l-2.135,0.305c-0.024,0.004-0.048,0.006-0.072,0.006v1.108l2.207-0.315V26.172L14.896,26.172
		z"/>
	<path fill="#AAB6CA" d="M14.896,28.56v-0.181l-2.135,0.305c-0.021,0.004-0.042,0.006-0.063,0.006
		c0.001,0.013,0.003,0.025,0.005,0.038c0.006,0.04,0.014,0.079,0.024,0.118c0.004,0.014,0.008,0.027,0.012,0.041
		c0.065,0.211,0.192,0.396,0.365,0.535c0.02,0.016,0.041,0.031,0.062,0.046c0.042,0.028,0.087,0.056,0.133,0.079l1.597,0.799h2.207
		l-1.597-0.799C15.133,29.359,14.896,28.978,14.896,28.56z"/>
</g>
<g>
	<path fill="#96A5B9" d="M19.238,26.655l-4.342,0.62l-2.207,0.315l-0.083,0.012c-0.269,0.038-0.469,0.269-0.469,0.541
		c0,0.311,0.257,0.554,0.56,0.546l0,0c0.021,0,0.042-0.002,0.063-0.006l2.135-0.305l4.414-0.631l0.082-0.012
		c0.27-0.038,0.47-0.269,0.47-0.541c0-0.308-0.253-0.549-0.552-0.545C19.287,26.65,19.263,26.652,19.238,26.655z"/>
	<path fill="#96A5B9" d="M19.238,24.448l-4.342,0.62l-2.207,0.315l-0.083,0.012c-0.269,0.038-0.469,0.269-0.469,0.541
		c0,0.308,0.252,0.55,0.552,0.546c0.023,0,0.047-0.002,0.072-0.006l2.135-0.305l4.414-0.631l0.082-0.012
		c0.27-0.038,0.47-0.269,0.47-0.541c0-0.307-0.253-0.549-0.552-0.545C19.287,24.443,19.263,24.445,19.238,24.448z"/>
</g>
</svg>
